<mxfile host="app.diagrams.net" modified="2022-06-23T12:50:17.201Z" agent="5.0 (X11; Linux x86_64) AppleWebKit/537.36 (KHTML, like Gecko) Chrome/102.0.0.0 Safari/537.36" etag="Pkoqtj4b9FOHUUTLAsA8" version="20.0.3" type="github">
  <diagram id="C5RBs43oDa-KdzZeNtuy" name="Page-1">
    <mxGraphModel dx="1125" dy="644" grid="1" gridSize="10" guides="1" tooltips="1" connect="1" arrows="1" fold="1" page="1" pageScale="1" pageWidth="827" pageHeight="1169" math="0" shadow="0">
      <root>
        <mxCell id="WIyWlLk6GJQsqaUBKTNV-0" />
        <mxCell id="WIyWlLk6GJQsqaUBKTNV-1" parent="WIyWlLk6GJQsqaUBKTNV-0" />
        <mxCell id="nVQmqfoj8V4I_-ZLSoDs-4" value="Promise" style="ellipse;whiteSpace=wrap;html=1;" vertex="1" parent="WIyWlLk6GJQsqaUBKTNV-1">
          <mxGeometry x="130" y="80" width="60" height="36" as="geometry" />
        </mxCell>
        <mxCell id="nVQmqfoj8V4I_-ZLSoDs-5" value="Send ARN (A) and ARN (K)&amp;nbsp;" style="rounded=1;whiteSpace=wrap;html=1;rotation=7;direction=west;" vertex="1" parent="WIyWlLk6GJQsqaUBKTNV-1">
          <mxGeometry x="190" y="130" width="180" height="30" as="geometry" />
        </mxCell>
        <mxCell id="nVQmqfoj8V4I_-ZLSoDs-7" value="OMS creates a role (R)" style="rounded=1;whiteSpace=wrap;html=1;" vertex="1" parent="WIyWlLk6GJQsqaUBKTNV-1">
          <mxGeometry x="530" y="210" width="130" height="30" as="geometry" />
        </mxCell>
        <mxCell id="nVQmqfoj8V4I_-ZLSoDs-8" value="Send role (R) ARN" style="rounded=1;whiteSpace=wrap;html=1;rotation=-11;" vertex="1" parent="WIyWlLk6GJQsqaUBKTNV-1">
          <mxGeometry x="260" y="330" width="120" height="25" as="geometry" />
        </mxCell>
        <mxCell id="nVQmqfoj8V4I_-ZLSoDs-9" value="Add role (R) ARN&amp;nbsp;" style="rounded=1;whiteSpace=wrap;html=1;" vertex="1" parent="WIyWlLk6GJQsqaUBKTNV-1">
          <mxGeometry x="30" y="405" width="120" height="40" as="geometry" />
        </mxCell>
        <mxCell id="nVQmqfoj8V4I_-ZLSoDs-10" value="" style="endArrow=none;html=1;rounded=0;strokeWidth=3;" edge="1" parent="WIyWlLk6GJQsqaUBKTNV-1">
          <mxGeometry width="50" height="50" relative="1" as="geometry">
            <mxPoint x="160" y="725" as="sourcePoint" />
            <mxPoint x="160" y="120" as="targetPoint" />
          </mxGeometry>
        </mxCell>
        <mxCell id="nVQmqfoj8V4I_-ZLSoDs-11" value="" style="endArrow=none;html=1;rounded=0;strokeWidth=3;" edge="1" parent="WIyWlLk6GJQsqaUBKTNV-1">
          <mxGeometry width="50" height="50" relative="1" as="geometry">
            <mxPoint x="520" y="725" as="sourcePoint" />
            <mxPoint x="520" y="120" as="targetPoint" />
          </mxGeometry>
        </mxCell>
        <mxCell id="nVQmqfoj8V4I_-ZLSoDs-12" value="OMS" style="ellipse;whiteSpace=wrap;html=1;" vertex="1" parent="WIyWlLk6GJQsqaUBKTNV-1">
          <mxGeometry x="490" y="80" width="60" height="36" as="geometry" />
        </mxCell>
        <mxCell id="nVQmqfoj8V4I_-ZLSoDs-13" value="" style="endArrow=classic;html=1;rounded=0;strokeWidth=3;" edge="1" parent="WIyWlLk6GJQsqaUBKTNV-1">
          <mxGeometry width="50" height="50" relative="1" as="geometry">
            <mxPoint x="160" y="160" as="sourcePoint" />
            <mxPoint x="520" y="200" as="targetPoint" />
          </mxGeometry>
        </mxCell>
        <mxCell id="nVQmqfoj8V4I_-ZLSoDs-14" value="Create Secret ARN (A) &lt;br&gt;and KMS ARN (K)" style="rounded=1;whiteSpace=wrap;html=1;" vertex="1" parent="WIyWlLk6GJQsqaUBKTNV-1">
          <mxGeometry x="10" y="130" width="130" height="60" as="geometry" />
        </mxCell>
        <mxCell id="nVQmqfoj8V4I_-ZLSoDs-15" value="OMS adds ARN (A) and ARN (B) to role (R) policy" style="rounded=1;whiteSpace=wrap;html=1;" vertex="1" parent="WIyWlLk6GJQsqaUBKTNV-1">
          <mxGeometry x="530" y="270" width="150" height="40" as="geometry" />
        </mxCell>
        <mxCell id="nVQmqfoj8V4I_-ZLSoDs-17" value="" style="endArrow=classic;html=1;rounded=0;strokeWidth=3;" edge="1" parent="WIyWlLk6GJQsqaUBKTNV-1">
          <mxGeometry width="50" height="50" relative="1" as="geometry">
            <mxPoint x="520" y="330" as="sourcePoint" />
            <mxPoint x="160" y="400" as="targetPoint" />
          </mxGeometry>
        </mxCell>
        <mxCell id="nVQmqfoj8V4I_-ZLSoDs-18" value="" style="endArrow=classic;html=1;rounded=0;strokeWidth=3;" edge="1" parent="WIyWlLk6GJQsqaUBKTNV-1">
          <mxGeometry width="50" height="50" relative="1" as="geometry">
            <mxPoint x="162" y="458" as="sourcePoint" />
            <mxPoint x="522" y="498" as="targetPoint" />
          </mxGeometry>
        </mxCell>
        <mxCell id="nVQmqfoj8V4I_-ZLSoDs-19" value="Configuration is complete,&amp;nbsp; can access" style="rounded=1;whiteSpace=wrap;html=1;rotation=7;direction=west;" vertex="1" parent="WIyWlLk6GJQsqaUBKTNV-1">
          <mxGeometry x="200" y="436" width="180" height="30" as="geometry" />
        </mxCell>
        <mxCell id="nVQmqfoj8V4I_-ZLSoDs-20" value="OMS run application call Promise secret with role (R) on EC2 or ECS" style="rounded=1;whiteSpace=wrap;html=1;" vertex="1" parent="WIyWlLk6GJQsqaUBKTNV-1">
          <mxGeometry x="530" y="500" width="150" height="50" as="geometry" />
        </mxCell>
        <mxCell id="nVQmqfoj8V4I_-ZLSoDs-21" value="" style="endArrow=classic;html=1;rounded=0;strokeWidth=3;" edge="1" parent="WIyWlLk6GJQsqaUBKTNV-1">
          <mxGeometry width="50" height="50" relative="1" as="geometry">
            <mxPoint x="521" y="539" as="sourcePoint" />
            <mxPoint x="161" y="609" as="targetPoint" />
          </mxGeometry>
        </mxCell>
        <mxCell id="nVQmqfoj8V4I_-ZLSoDs-22" value="" style="endArrow=classic;html=1;rounded=0;strokeWidth=3;" edge="1" parent="WIyWlLk6GJQsqaUBKTNV-1">
          <mxGeometry width="50" height="50" relative="1" as="geometry">
            <mxPoint x="162" y="643" as="sourcePoint" />
            <mxPoint x="522" y="683" as="targetPoint" />
          </mxGeometry>
        </mxCell>
        <mxCell id="nVQmqfoj8V4I_-ZLSoDs-23" value="Return api key" style="rounded=1;whiteSpace=wrap;html=1;rotation=7;direction=west;" vertex="1" parent="WIyWlLk6GJQsqaUBKTNV-1">
          <mxGeometry x="210" y="623" width="180" height="30" as="geometry" />
        </mxCell>
        <mxCell id="nVQmqfoj8V4I_-ZLSoDs-24" value="1" style="ellipse;whiteSpace=wrap;html=1;aspect=fixed;" vertex="1" parent="WIyWlLk6GJQsqaUBKTNV-1">
          <mxGeometry x="10" y="100" width="20" height="20" as="geometry" />
        </mxCell>
        <mxCell id="nVQmqfoj8V4I_-ZLSoDs-25" value="2" style="ellipse;whiteSpace=wrap;html=1;aspect=fixed;" vertex="1" parent="WIyWlLk6GJQsqaUBKTNV-1">
          <mxGeometry x="380" y="150" width="20" height="20" as="geometry" />
        </mxCell>
        <mxCell id="nVQmqfoj8V4I_-ZLSoDs-26" value="3" style="ellipse;whiteSpace=wrap;html=1;aspect=fixed;" vertex="1" parent="WIyWlLk6GJQsqaUBKTNV-1">
          <mxGeometry x="670" y="215" width="20" height="20" as="geometry" />
        </mxCell>
        <mxCell id="nVQmqfoj8V4I_-ZLSoDs-27" value="4" style="ellipse;whiteSpace=wrap;html=1;aspect=fixed;" vertex="1" parent="WIyWlLk6GJQsqaUBKTNV-1">
          <mxGeometry x="690" y="280" width="20" height="20" as="geometry" />
        </mxCell>
        <mxCell id="nVQmqfoj8V4I_-ZLSoDs-28" value="5" style="ellipse;whiteSpace=wrap;html=1;aspect=fixed;" vertex="1" parent="WIyWlLk6GJQsqaUBKTNV-1">
          <mxGeometry x="230" y="350" width="20" height="20" as="geometry" />
        </mxCell>
        <mxCell id="nVQmqfoj8V4I_-ZLSoDs-29" value="6" style="ellipse;whiteSpace=wrap;html=1;aspect=fixed;" vertex="1" parent="WIyWlLk6GJQsqaUBKTNV-1">
          <mxGeometry x="30" y="380" width="20" height="20" as="geometry" />
        </mxCell>
        <mxCell id="nVQmqfoj8V4I_-ZLSoDs-30" value="7" style="ellipse;whiteSpace=wrap;html=1;aspect=fixed;" vertex="1" parent="WIyWlLk6GJQsqaUBKTNV-1">
          <mxGeometry x="390" y="454" width="20" height="20" as="geometry" />
        </mxCell>
        <mxCell id="nVQmqfoj8V4I_-ZLSoDs-31" value="8" style="ellipse;whiteSpace=wrap;html=1;aspect=fixed;" vertex="1" parent="WIyWlLk6GJQsqaUBKTNV-1">
          <mxGeometry x="690" y="500" width="20" height="20" as="geometry" />
        </mxCell>
        <mxCell id="nVQmqfoj8V4I_-ZLSoDs-32" value="9" style="ellipse;whiteSpace=wrap;html=1;aspect=fixed;" vertex="1" parent="WIyWlLk6GJQsqaUBKTNV-1">
          <mxGeometry x="300" y="550" width="20" height="20" as="geometry" />
        </mxCell>
        <mxCell id="nVQmqfoj8V4I_-ZLSoDs-33" value="10" style="ellipse;whiteSpace=wrap;html=1;aspect=fixed;" vertex="1" parent="WIyWlLk6GJQsqaUBKTNV-1">
          <mxGeometry x="400" y="640" width="20" height="20" as="geometry" />
        </mxCell>
      </root>
    </mxGraphModel>
  </diagram>
</mxfile>
